<mxfile host="app.diagrams.net" modified="2023-08-24T18:05:25.225Z" agent="Mozilla/5.0 (Macintosh; Intel Mac OS X 10_15_7) AppleWebKit/537.36 (KHTML, like Gecko) Chrome/115.0.0.0 Safari/537.36" etag="xdOTalw6LlMgiv2qSUp7" version="21.6.9" type="device">
  <diagram name="Page-1" id="wjwZGoTeLF5HTblK883B">
    <mxGraphModel dx="910" dy="1104" grid="0" gridSize="10" guides="1" tooltips="1" connect="1" arrows="1" fold="1" page="0" pageScale="1" pageWidth="850" pageHeight="1100" math="0" shadow="0">
      <root>
        <mxCell id="0" />
        <mxCell id="1" parent="0" />
        <mxCell id="7NXyHI-220XTHL8mqvZ0-3" value="" style="edgeStyle=none;curved=1;rounded=0;orthogonalLoop=1;jettySize=auto;html=1;fontSize=12;startSize=8;endSize=8;" edge="1" parent="1" source="7NXyHI-220XTHL8mqvZ0-1" target="7NXyHI-220XTHL8mqvZ0-2">
          <mxGeometry relative="1" as="geometry" />
        </mxCell>
        <mxCell id="7NXyHI-220XTHL8mqvZ0-5" value="" style="edgeStyle=none;curved=1;rounded=0;orthogonalLoop=1;jettySize=auto;html=1;fontSize=12;startSize=8;endSize=8;" edge="1" parent="1" source="7NXyHI-220XTHL8mqvZ0-1" target="7NXyHI-220XTHL8mqvZ0-4">
          <mxGeometry relative="1" as="geometry" />
        </mxCell>
        <mxCell id="7NXyHI-220XTHL8mqvZ0-7" value="" style="edgeStyle=none;curved=1;rounded=0;orthogonalLoop=1;jettySize=auto;html=1;fontSize=12;startSize=8;endSize=8;" edge="1" parent="1" source="7NXyHI-220XTHL8mqvZ0-1" target="7NXyHI-220XTHL8mqvZ0-6">
          <mxGeometry relative="1" as="geometry" />
        </mxCell>
        <mxCell id="7NXyHI-220XTHL8mqvZ0-1" value="main.js" style="ellipse;whiteSpace=wrap;html=1;fontSize=16;" vertex="1" parent="1">
          <mxGeometry x="119" y="-189" width="120" height="80" as="geometry" />
        </mxCell>
        <mxCell id="7NXyHI-220XTHL8mqvZ0-10" style="edgeStyle=none;curved=1;rounded=0;orthogonalLoop=1;jettySize=auto;html=1;entryX=0;entryY=0.5;entryDx=0;entryDy=0;fontSize=12;startSize=8;endSize=8;" edge="1" parent="1" source="7NXyHI-220XTHL8mqvZ0-2" target="7NXyHI-220XTHL8mqvZ0-8">
          <mxGeometry relative="1" as="geometry" />
        </mxCell>
        <mxCell id="7NXyHI-220XTHL8mqvZ0-2" value="ships.js&lt;br&gt;" style="ellipse;whiteSpace=wrap;html=1;fontSize=16;" vertex="1" parent="1">
          <mxGeometry x="-123" y="-92" width="120" height="80" as="geometry" />
        </mxCell>
        <mxCell id="7NXyHI-220XTHL8mqvZ0-9" value="" style="edgeStyle=none;curved=1;rounded=0;orthogonalLoop=1;jettySize=auto;html=1;fontSize=12;startSize=8;endSize=8;" edge="1" parent="1" source="7NXyHI-220XTHL8mqvZ0-4" target="7NXyHI-220XTHL8mqvZ0-8">
          <mxGeometry relative="1" as="geometry" />
        </mxCell>
        <mxCell id="7NXyHI-220XTHL8mqvZ0-4" value="haulers.js" style="ellipse;whiteSpace=wrap;html=1;fontSize=16;" vertex="1" parent="1">
          <mxGeometry x="117" y="-54" width="120" height="80" as="geometry" />
        </mxCell>
        <mxCell id="7NXyHI-220XTHL8mqvZ0-11" style="edgeStyle=none;curved=1;rounded=0;orthogonalLoop=1;jettySize=auto;html=1;entryX=1;entryY=0.5;entryDx=0;entryDy=0;fontSize=12;startSize=8;endSize=8;" edge="1" parent="1" source="7NXyHI-220XTHL8mqvZ0-6" target="7NXyHI-220XTHL8mqvZ0-8">
          <mxGeometry relative="1" as="geometry" />
        </mxCell>
        <mxCell id="7NXyHI-220XTHL8mqvZ0-6" value="docks.js" style="ellipse;whiteSpace=wrap;html=1;fontSize=16;" vertex="1" parent="1">
          <mxGeometry x="357" y="-92" width="120" height="80" as="geometry" />
        </mxCell>
        <mxCell id="7NXyHI-220XTHL8mqvZ0-8" value="database.js" style="ellipse;whiteSpace=wrap;html=1;fontSize=16;" vertex="1" parent="1">
          <mxGeometry x="117" y="105" width="120" height="80" as="geometry" />
        </mxCell>
      </root>
    </mxGraphModel>
  </diagram>
</mxfile>
